<svg width="290" height="35" viewBox="0 0 290 35" fill="none" xmlns="http://www.w3.org/2000/svg">
<circle cx="287.5" cy="2.5" r="2.5" fill="#FAFAFA"/>
<circle cx="272.5" cy="2.5" r="2.5" fill="#FAFAFA"/>
<circle cx="257.5" cy="2.5" r="2.5" fill="#FAFAFA"/>
<circle cx="242.5" cy="2.5" r="2.5" fill="#FAFAFA"/>
<circle cx="227.5" cy="2.5" r="2.5" fill="#FAFAFA"/>
<circle cx="212.5" cy="2.5" r="2.5" fill="#FAFAFA"/>
<circle cx="197.5" cy="2.5" r="2.5" fill="#FAFAFA"/>
<circle cx="182.5" cy="2.5" r="2.5" fill="#FAFAFA" fill-opacity="0.75"/>
<circle cx="167.5" cy="2.5" r="2.5" fill="#FAFAFA" fill-opacity="0.75"/>
<circle cx="152.5" cy="2.5" r="2.5" fill="#FAFAFA" fill-opacity="0.75"/>
<circle cx="137.5" cy="2.5" r="2.5" fill="#FAFAFA" fill-opacity="0.75"/>
<circle cx="122.5" cy="2.5" r="2.5" fill="#FAFAFA" fill-opacity="0.75"/>
<circle cx="107.5" cy="2.5" r="2.5" fill="#FAFAFA" fill-opacity="0.75"/>
<circle cx="92.5" cy="2.5" r="2.5" fill="#FAFAFA" fill-opacity="0.75"/>
<circle cx="77.5" cy="2.5" r="2.5" fill="#FAFAFA" fill-opacity="0.5"/>
<circle cx="62.5" cy="2.5" r="2.5" fill="#FAFAFA" fill-opacity="0.5"/>
<circle cx="47.5" cy="2.5" r="2.5" fill="#FAFAFA" fill-opacity="0.25"/>
<circle cx="32.5" cy="2.5" r="2.5" fill="#FAFAFA" fill-opacity="0.25"/>
<circle cx="17.5" cy="2.5" r="2.5" fill="#FAFAFA" fill-opacity="0.25"/>
<circle cx="2.5" cy="2.5" r="2.5" fill="#FAFAFA" fill-opacity="0.25"/>
<circle cx="287.5" cy="17.5" r="2.5" fill="#FAFAFA"/>
<circle cx="272.5" cy="17.5" r="2.5" fill="#FAFAFA"/>
<circle cx="257.5" cy="17.5" r="2.5" fill="#FAFAFA"/>
<circle cx="242.5" cy="17.5" r="2.5" fill="#FAFAFA"/>
<circle cx="227.5" cy="17.5" r="2.5" fill="#FAFAFA"/>
<circle cx="212.5" cy="17.5" r="2.5" fill="#FAFAFA"/>
<circle cx="197.5" cy="17.5" r="2.5" fill="#FAFAFA"/>
<circle cx="182.5" cy="17.5" r="2.5" fill="#FAFAFA" fill-opacity="0.75"/>
<circle cx="167.5" cy="17.5" r="2.5" fill="#FAFAFA" fill-opacity="0.75"/>
<circle cx="152.5" cy="17.5" r="2.5" fill="#FAFAFA" fill-opacity="0.75"/>
<circle cx="137.5" cy="32.5" r="2.5" fill="#FAFAFA" fill-opacity="0.75"/>
<circle cx="122.5" cy="32.5" r="2.5" fill="#FAFAFA" fill-opacity="0.75"/>
<circle cx="107.5" cy="32.5" r="2.5" fill="#FAFAFA" fill-opacity="0.75"/>
<circle cx="92.5" cy="32.5" r="2.5" fill="#FAFAFA" fill-opacity="0.75"/>
<circle cx="77.5" cy="32.5" r="2.5" fill="#FAFAFA" fill-opacity="0.5"/>
<circle cx="287.5" cy="32.5" r="2.5" fill="#FAFAFA"/>
<circle cx="272.5" cy="32.5" r="2.5" fill="#FAFAFA"/>
<circle cx="257.5" cy="32.5" r="2.5" fill="#FAFAFA"/>
<circle cx="242.5" cy="32.5" r="2.5" fill="#FAFAFA"/>
<circle cx="227.5" cy="32.5" r="2.5" fill="#FAFAFA"/>
<circle cx="212.5" cy="32.5" r="2.5" fill="#FAFAFA"/>
<circle cx="197.5" cy="32.5" r="2.5" fill="#FAFAFA"/>
<circle cx="182.5" cy="32.5" r="2.5" fill="#FAFAFA" fill-opacity="0.75"/>
<circle cx="167.5" cy="32.5" r="2.5" fill="#FAFAFA" fill-opacity="0.75"/>
<circle cx="152.5" cy="32.5" r="2.5" fill="#FAFAFA" fill-opacity="0.75"/>
<circle cx="137.5" cy="17.5" r="2.5" fill="#FAFAFA" fill-opacity="0.75"/>
<circle cx="122.5" cy="17.5" r="2.5" fill="#FAFAFA" fill-opacity="0.75"/>
<circle cx="107.5" cy="17.5" r="2.5" fill="#FAFAFA" fill-opacity="0.75"/>
<circle cx="92.5" cy="17.5" r="2.5" fill="#FAFAFA" fill-opacity="0.75"/>
<circle cx="77.5" cy="17.5" r="2.5" fill="#FAFAFA" fill-opacity="0.5"/>
<circle cx="62.5" cy="17.5" r="2.5" fill="#FAFAFA" fill-opacity="0.5"/>
<circle cx="47.5" cy="17.5" r="2.5" fill="#FAFAFA" fill-opacity="0.25"/>
<circle cx="32.5" cy="17.5" r="2.5" fill="#FAFAFA" fill-opacity="0.25"/>
</svg>
